<svg xmlns="http://www.w3.org/2000/svg" xmlns:xlink="http://www.w3.org/1999/xlink" width="500" zoomAndPan="magnify" viewBox="0 0 375 374.999991" height="500" preserveAspectRatio="xMidYMid meet" version="1.0"><defs><clipPath id="id1"><path d="M 153 0 L 214 0 L 214 136 L 153 136 Z M 153 0 " clip-rule="nonzero"/></clipPath><clipPath id="id2"><path d="M -21.535156 128.679688 L 179.832031 -20.316406 L 396.195312 272.089844 L 194.824219 421.089844 Z M -21.535156 128.679688 " clip-rule="nonzero"/></clipPath><clipPath id="id3"><path d="M -21.535156 128.679688 L 179.832031 -20.316406 L 396.195312 272.089844 L 194.824219 421.089844 Z M -21.535156 128.679688 " clip-rule="nonzero"/></clipPath><clipPath id="id4"><path d="M -21.535156 128.679688 L 179.832031 -20.316406 L 396.195312 272.089844 L 194.824219 421.089844 Z M -21.535156 128.679688 " clip-rule="nonzero"/></clipPath><clipPath id="id5"><path d="M 156 0 L 237 0 L 237 142 L 156 142 Z M 156 0 " clip-rule="nonzero"/></clipPath><clipPath id="id6"><path d="M -21.535156 128.679688 L 179.832031 -20.316406 L 396.195312 272.089844 L 194.824219 421.089844 Z M -21.535156 128.679688 " clip-rule="nonzero"/></clipPath><clipPath id="id7"><path d="M -21.535156 128.679688 L 179.832031 -20.316406 L 396.195312 272.089844 L 194.824219 421.089844 Z M -21.535156 128.679688 " clip-rule="nonzero"/></clipPath><clipPath id="id8"><path d="M -21.535156 128.679688 L 179.832031 -20.316406 L 396.195312 272.089844 L 194.824219 421.089844 Z M -21.535156 128.679688 " clip-rule="nonzero"/></clipPath><clipPath id="id9"><path d="M 127.101562 19.164062 L 180.136719 -20.078125 L 276.203125 109.757812 L 223.167969 148.996094 Z M 127.101562 19.164062 " clip-rule="nonzero"/></clipPath><clipPath id="id10"><path d="M 127.101562 19.164062 L 180.078125 -20.035156 L 276.148438 109.796875 L 223.167969 148.996094 Z M 127.101562 19.164062 " clip-rule="nonzero"/></clipPath><clipPath id="id11"><path d="M 5 108 L 123 108 L 123 204 L 5 204 Z M 5 108 " clip-rule="nonzero"/></clipPath><clipPath id="id12"><path d="M -21.535156 128.679688 L 179.832031 -20.316406 L 396.195312 272.089844 L 194.824219 421.089844 Z M -21.535156 128.679688 " clip-rule="nonzero"/></clipPath><clipPath id="id13"><path d="M -21.535156 128.679688 L 179.832031 -20.316406 L 396.195312 272.089844 L 194.824219 421.089844 Z M -21.535156 128.679688 " clip-rule="nonzero"/></clipPath><clipPath id="id14"><path d="M -21.535156 128.679688 L 179.832031 -20.316406 L 396.195312 272.089844 L 194.824219 421.089844 Z M -21.535156 128.679688 " clip-rule="nonzero"/></clipPath><clipPath id="id15"><path d="M 3 108 L 123 108 L 123 224 L 3 224 Z M 3 108 " clip-rule="nonzero"/></clipPath><clipPath id="id16"><path d="M -21.535156 128.679688 L 179.832031 -20.316406 L 396.195312 272.089844 L 194.824219 421.089844 Z M -21.535156 128.679688 " clip-rule="nonzero"/></clipPath><clipPath id="id17"><path d="M -21.535156 128.679688 L 179.832031 -20.316406 L 396.195312 272.089844 L 194.824219 421.089844 Z M -21.535156 128.679688 " clip-rule="nonzero"/></clipPath><clipPath id="id18"><path d="M -21.535156 128.679688 L 179.832031 -20.316406 L 396.195312 272.089844 L 194.824219 421.089844 Z M -21.535156 128.679688 " clip-rule="nonzero"/></clipPath><clipPath id="id19"><path d="M 256 307 L 319 307 L 319 359 L 256 359 Z M 256 307 " clip-rule="nonzero"/></clipPath><clipPath id="id20"><path d="M -21.535156 128.679688 L 179.832031 -20.316406 L 396.195312 272.089844 L 194.824219 421.089844 Z M -21.535156 128.679688 " clip-rule="nonzero"/></clipPath><clipPath id="id21"><path d="M -21.535156 128.679688 L 179.832031 -20.316406 L 396.195312 272.089844 L 194.824219 421.089844 Z M -21.535156 128.679688 " clip-rule="nonzero"/></clipPath><clipPath id="id22"><path d="M -21.535156 128.679688 L 179.832031 -20.316406 L 396.195312 272.089844 L 194.824219 421.089844 Z M -21.535156 128.679688 " clip-rule="nonzero"/></clipPath><clipPath id="id23"><path d="M 255.960938 348.925781 L 312.953125 306.757812 L 325.839844 324.171875 L 268.847656 366.34375 Z M 255.960938 348.925781 " clip-rule="nonzero"/></clipPath><clipPath id="id24"><path d="M 255.960938 348.925781 L 312.953125 306.757812 L 325.628906 323.890625 L 268.636719 366.058594 Z M 255.960938 348.925781 " clip-rule="nonzero"/></clipPath><clipPath id="id25"><path d="M 116 118 L 283 118 L 283 306 L 116 306 Z M 116 118 " clip-rule="nonzero"/></clipPath><clipPath id="id26"><path d="M -21.535156 128.679688 L 179.832031 -20.316406 L 396.195312 272.089844 L 194.824219 421.089844 Z M -21.535156 128.679688 " clip-rule="nonzero"/></clipPath><clipPath id="id27"><path d="M -21.535156 128.679688 L 179.832031 -20.316406 L 396.195312 272.089844 L 194.824219 421.089844 Z M -21.535156 128.679688 " clip-rule="nonzero"/></clipPath><clipPath id="id28"><path d="M -21.535156 128.679688 L 179.832031 -20.316406 L 396.195312 272.089844 L 194.824219 421.089844 Z M -21.535156 128.679688 " clip-rule="nonzero"/></clipPath><clipPath id="id29"><path d="M 207 235 L 318 235 L 318 351 L 207 351 Z M 207 235 " clip-rule="nonzero"/></clipPath><clipPath id="id30"><path d="M -21.535156 128.679688 L 179.832031 -20.316406 L 396.195312 272.089844 L 194.824219 421.089844 Z M -21.535156 128.679688 " clip-rule="nonzero"/></clipPath><clipPath id="id31"><path d="M -21.535156 128.679688 L 179.832031 -20.316406 L 396.195312 272.089844 L 194.824219 421.089844 Z M -21.535156 128.679688 " clip-rule="nonzero"/></clipPath><clipPath id="id32"><path d="M -21.535156 128.679688 L 179.832031 -20.316406 L 396.195312 272.089844 L 194.824219 421.089844 Z M -21.535156 128.679688 " clip-rule="nonzero"/></clipPath><clipPath id="id33"><path d="M 232 303 L 256 303 L 256 322 L 232 322 Z M 232 303 " clip-rule="nonzero"/></clipPath><clipPath id="id34"><path d="M -21.535156 128.679688 L 179.832031 -20.316406 L 396.195312 272.089844 L 194.824219 421.089844 Z M -21.535156 128.679688 " clip-rule="nonzero"/></clipPath><clipPath id="id35"><path d="M -21.535156 128.679688 L 179.832031 -20.316406 L 396.195312 272.089844 L 194.824219 421.089844 Z M -21.535156 128.679688 " clip-rule="nonzero"/></clipPath><clipPath id="id36"><path d="M -21.535156 128.679688 L 179.832031 -20.316406 L 396.195312 272.089844 L 194.824219 421.089844 Z M -21.535156 128.679688 " clip-rule="nonzero"/></clipPath><clipPath id="id37"><path d="M 273 272 L 291 272 L 291 297 L 273 297 Z M 273 272 " clip-rule="nonzero"/></clipPath><clipPath id="id38"><path d="M -21.535156 128.679688 L 179.832031 -20.316406 L 396.195312 272.089844 L 194.824219 421.089844 Z M -21.535156 128.679688 " clip-rule="nonzero"/></clipPath><clipPath id="id39"><path d="M -21.535156 128.679688 L 179.832031 -20.316406 L 396.195312 272.089844 L 194.824219 421.089844 Z M -21.535156 128.679688 " clip-rule="nonzero"/></clipPath><clipPath id="id40"><path d="M -21.535156 128.679688 L 179.832031 -20.316406 L 396.195312 272.089844 L 194.824219 421.089844 Z M -21.535156 128.679688 " clip-rule="nonzero"/></clipPath><clipPath id="id41"><path d="M 130 203 L 174 203 L 174 234 L 130 234 Z M 130 203 " clip-rule="nonzero"/></clipPath><clipPath id="id42"><path d="M -21.535156 128.679688 L 179.832031 -20.316406 L 396.195312 272.089844 L 194.824219 421.089844 Z M -21.535156 128.679688 " clip-rule="nonzero"/></clipPath><clipPath id="id43"><path d="M -21.535156 128.679688 L 179.832031 -20.316406 L 396.195312 272.089844 L 194.824219 421.089844 Z M -21.535156 128.679688 " clip-rule="nonzero"/></clipPath><clipPath id="id44"><path d="M -21.535156 128.679688 L 179.832031 -20.316406 L 396.195312 272.089844 L 194.824219 421.089844 Z M -21.535156 128.679688 " clip-rule="nonzero"/></clipPath><clipPath id="id45"><path d="M 137 209 L 166 209 L 166 230 L 137 230 Z M 137 209 " clip-rule="nonzero"/></clipPath><clipPath id="id46"><path d="M -21.535156 128.679688 L 179.832031 -20.316406 L 396.195312 272.089844 L 194.824219 421.089844 Z M -21.535156 128.679688 " clip-rule="nonzero"/></clipPath><clipPath id="id47"><path d="M -21.535156 128.679688 L 179.832031 -20.316406 L 396.195312 272.089844 L 194.824219 421.089844 Z M -21.535156 128.679688 " clip-rule="nonzero"/></clipPath><clipPath id="id48"><path d="M -21.535156 128.679688 L 179.832031 -20.316406 L 396.195312 272.089844 L 194.824219 421.089844 Z M -21.535156 128.679688 " clip-rule="nonzero"/></clipPath><clipPath id="id49"><path d="M 144 213 L 159 213 L 159 226 L 144 226 Z M 144 213 " clip-rule="nonzero"/></clipPath><clipPath id="id50"><path d="M -21.535156 128.679688 L 179.832031 -20.316406 L 396.195312 272.089844 L 194.824219 421.089844 Z M -21.535156 128.679688 " clip-rule="nonzero"/></clipPath><clipPath id="id51"><path d="M -21.535156 128.679688 L 179.832031 -20.316406 L 396.195312 272.089844 L 194.824219 421.089844 Z M -21.535156 128.679688 " clip-rule="nonzero"/></clipPath><clipPath id="id52"><path d="M -21.535156 128.679688 L 179.832031 -20.316406 L 396.195312 272.089844 L 194.824219 421.089844 Z M -21.535156 128.679688 " clip-rule="nonzero"/></clipPath><clipPath id="id53"><path d="M 144 217 L 148 217 L 148 221 L 144 221 Z M 144 217 " clip-rule="nonzero"/></clipPath><clipPath id="id54"><path d="M -21.535156 128.679688 L 179.832031 -20.316406 L 396.195312 272.089844 L 194.824219 421.089844 Z M -21.535156 128.679688 " clip-rule="nonzero"/></clipPath><clipPath id="id55"><path d="M -21.535156 128.679688 L 179.832031 -20.316406 L 396.195312 272.089844 L 194.824219 421.089844 Z M -21.535156 128.679688 " clip-rule="nonzero"/></clipPath><clipPath id="id56"><path d="M -21.535156 128.679688 L 179.832031 -20.316406 L 396.195312 272.089844 L 194.824219 421.089844 Z M -21.535156 128.679688 " clip-rule="nonzero"/></clipPath><clipPath id="id57"><path d="M 156 219 L 158 219 L 158 222 L 156 222 Z M 156 219 " clip-rule="nonzero"/></clipPath><clipPath id="id58"><path d="M -21.535156 128.679688 L 179.832031 -20.316406 L 396.195312 272.089844 L 194.824219 421.089844 Z M -21.535156 128.679688 " clip-rule="nonzero"/></clipPath><clipPath id="id59"><path d="M -21.535156 128.679688 L 179.832031 -20.316406 L 396.195312 272.089844 L 194.824219 421.089844 Z M -21.535156 128.679688 " clip-rule="nonzero"/></clipPath><clipPath id="id60"><path d="M -21.535156 128.679688 L 179.832031 -20.316406 L 396.195312 272.089844 L 194.824219 421.089844 Z M -21.535156 128.679688 " clip-rule="nonzero"/></clipPath><clipPath id="id61"><path d="M 202 150 L 237 150 L 237 191 L 202 191 Z M 202 150 " clip-rule="nonzero"/></clipPath><clipPath id="id62"><path d="M -21.535156 128.679688 L 179.832031 -20.316406 L 396.195312 272.089844 L 194.824219 421.089844 Z M -21.535156 128.679688 " clip-rule="nonzero"/></clipPath><clipPath id="id63"><path d="M -21.535156 128.679688 L 179.832031 -20.316406 L 396.195312 272.089844 L 194.824219 421.089844 Z M -21.535156 128.679688 " clip-rule="nonzero"/></clipPath><clipPath id="id64"><path d="M -21.535156 128.679688 L 179.832031 -20.316406 L 396.195312 272.089844 L 194.824219 421.089844 Z M -21.535156 128.679688 " clip-rule="nonzero"/></clipPath><clipPath id="id65"><path d="M 207 156 L 232 156 L 232 182 L 207 182 Z M 207 156 " clip-rule="nonzero"/></clipPath><clipPath id="id66"><path d="M -21.535156 128.679688 L 179.832031 -20.316406 L 396.195312 272.089844 L 194.824219 421.089844 Z M -21.535156 128.679688 " clip-rule="nonzero"/></clipPath><clipPath id="id67"><path d="M -21.535156 128.679688 L 179.832031 -20.316406 L 396.195312 272.089844 L 194.824219 421.089844 Z M -21.535156 128.679688 " clip-rule="nonzero"/></clipPath><clipPath id="id68"><path d="M -21.535156 128.679688 L 179.832031 -20.316406 L 396.195312 272.089844 L 194.824219 421.089844 Z M -21.535156 128.679688 " clip-rule="nonzero"/></clipPath><clipPath id="id69"><path d="M 213 162 L 227 162 L 227 176 L 213 176 Z M 213 162 " clip-rule="nonzero"/></clipPath><clipPath id="id70"><path d="M -21.535156 128.679688 L 179.832031 -20.316406 L 396.195312 272.089844 L 194.824219 421.089844 Z M -21.535156 128.679688 " clip-rule="nonzero"/></clipPath><clipPath id="id71"><path d="M -21.535156 128.679688 L 179.832031 -20.316406 L 396.195312 272.089844 L 194.824219 421.089844 Z M -21.535156 128.679688 " clip-rule="nonzero"/></clipPath><clipPath id="id72"><path d="M -21.535156 128.679688 L 179.832031 -20.316406 L 396.195312 272.089844 L 194.824219 421.089844 Z M -21.535156 128.679688 " clip-rule="nonzero"/></clipPath><clipPath id="id73"><path d="M 219 162 L 223 162 L 223 166 L 219 166 Z M 219 162 " clip-rule="nonzero"/></clipPath><clipPath id="id74"><path d="M -21.535156 128.679688 L 179.832031 -20.316406 L 396.195312 272.089844 L 194.824219 421.089844 Z M -21.535156 128.679688 " clip-rule="nonzero"/></clipPath><clipPath id="id75"><path d="M -21.535156 128.679688 L 179.832031 -20.316406 L 396.195312 272.089844 L 194.824219 421.089844 Z M -21.535156 128.679688 " clip-rule="nonzero"/></clipPath><clipPath id="id76"><path d="M -21.535156 128.679688 L 179.832031 -20.316406 L 396.195312 272.089844 L 194.824219 421.089844 Z M -21.535156 128.679688 " clip-rule="nonzero"/></clipPath><clipPath id="id77"><path d="M 218 173 L 220 173 L 220 176 L 218 176 Z M 218 173 " clip-rule="nonzero"/></clipPath><clipPath id="id78"><path d="M -21.535156 128.679688 L 179.832031 -20.316406 L 396.195312 272.089844 L 194.824219 421.089844 Z M -21.535156 128.679688 " clip-rule="nonzero"/></clipPath><clipPath id="id79"><path d="M -21.535156 128.679688 L 179.832031 -20.316406 L 396.195312 272.089844 L 194.824219 421.089844 Z M -21.535156 128.679688 " clip-rule="nonzero"/></clipPath><clipPath id="id80"><path d="M -21.535156 128.679688 L 179.832031 -20.316406 L 396.195312 272.089844 L 194.824219 421.089844 Z M -21.535156 128.679688 " clip-rule="nonzero"/></clipPath></defs><g clip-path="url(#id1)"><g clip-path="url(#id2)"><g clip-path="url(#id3)"><g clip-path="url(#id4)"><path fill="#302f2f" d="M 173.652344 101.210938 C 176.292969 107.761719 179.292969 116.84375 182.496094 124.28125 C 187.9375 130.160156 192.917969 130.808594 202.332031 133.316406 C 206.007812 134.292969 209.863281 134.820312 213.6875 135.28125 C 186.453125 85.628906 175.8125 47.582031 156.398438 -2.5 C 148.101562 7.097656 160.972656 69.765625 173.652344 101.210938 " fill-opacity="1" fill-rule="evenodd"/></g></g></g></g><g clip-path="url(#id5)"><g clip-path="url(#id6)"><g clip-path="url(#id7)"><g clip-path="url(#id8)"><g clip-path="url(#id9)"><g clip-path="url(#id10)"><path fill="#6c6d6f" d="M 232.042969 141.257812 C 237.199219 109.785156 238.519531 68.214844 231.777344 51.492188 C 223.757812 31.59375 173.679688 -6.179688 156.390625 -2.503906 C 162.382812 21.222656 172.3125 48.496094 183.292969 74.050781 C 193.757812 98.402344 205.164062 121.152344 215.015625 137.769531 C 220.832031 138.511719 226.472656 139.449219 232.042969 141.257812 " fill-opacity="1" fill-rule="evenodd"/></g></g></g></g></g></g><g clip-path="url(#id11)"><g clip-path="url(#id12)"><g clip-path="url(#id13)"><g clip-path="url(#id14)"><path fill="#302f2f" d="M 100.070312 155.652344 C 105.5625 160.09375 113.371094 165.621094 119.546875 170.859375 C 123.578125 177.78125 122.746094 182.734375 122.386719 192.46875 C 122.25 196.269531 121.621094 200.113281 120.945312 203.90625 C 81.429688 163.34375 48.15625 142.039062 5.9375 108.832031 C 17.542969 103.699219 73.707031 134.335938 100.070312 155.652344 " fill-opacity="1" fill-rule="evenodd"/></g></g></g></g><g clip-path="url(#id15)"><g clip-path="url(#id16)"><g clip-path="url(#id17)"><g clip-path="url(#id18)"><path fill="#6c6d6f" d="M 121.292969 223.207031 C 89.6875 218.929688 49.550781 208.039062 35.53125 196.699219 C 18.847656 183.210938 -2.632812 124.28125 5.9375 108.820312 C 26.875 121.488281 50.050781 138.957031 71.28125 156.933594 C 91.503906 174.0625 109.925781 191.617188 122.9375 205.898438 C 121.945312 211.679688 121.191406 217.347656 121.292969 223.207031 " fill-opacity="1" fill-rule="evenodd"/></g></g></g></g><g clip-path="url(#id19)"><g clip-path="url(#id20)"><g clip-path="url(#id21)"><g clip-path="url(#id22)"><g clip-path="url(#id23)"><g clip-path="url(#id24)"><path fill="#747577" d="M 313.0625 307.128906 C 319.644531 317.929688 324.015625 325.082031 297.066406 345.023438 C 269.964844 365.078125 264.640625 358.632812 256.230469 349.1875 C 278.113281 342.316406 300.09375 326.050781 313.0625 307.128906 " fill-opacity="1" fill-rule="evenodd"/></g></g></g></g></g></g><g clip-path="url(#id25)"><g clip-path="url(#id26)"><g clip-path="url(#id27)"><g clip-path="url(#id28)"><path fill="#4c4d4e" d="M 282.066406 256.757812 C 276.96875 233.109375 284.648438 208.976562 266.136719 172.566406 C 233.023438 107.460938 204.800781 140.535156 182.265625 122.808594 C 159.984375 105.273438 106.378906 143.320312 118.160156 170.242188 C 130.816406 199.164062 96.148438 222.144531 140.835938 265.28125 C 172.21875 295.582031 199.070312 296.445312 217.144531 305.078125 L 282.066406 256.757812 " fill-opacity="1" fill-rule="evenodd"/></g></g></g></g><g clip-path="url(#id29)"><g clip-path="url(#id30)"><g clip-path="url(#id31)"><g clip-path="url(#id32)"><path fill="#868889" d="M 207.335938 263.773438 C 228.058594 289.554688 205.097656 314.011719 230.160156 342.128906 C 256.953125 372.183594 334.84375 314.550781 313.933594 280.140625 C 294.378906 247.949219 264.277344 262.757812 245.679688 235.402344 C 226.5625 237.171875 213.910156 246.363281 207.335938 263.773438 " fill-opacity="1" fill-rule="evenodd"/></g></g></g></g><g clip-path="url(#id33)"><g clip-path="url(#id34)"><g clip-path="url(#id35)"><g clip-path="url(#id36)"><path fill="#3b3b3c" d="M 234.414062 317.273438 C 226.542969 306.632812 241.722656 294.898438 254.773438 312.539062 C 257.925781 316.796875 252.089844 316.128906 247.832031 319.277344 C 243.570312 322.429688 237.566406 321.535156 234.414062 317.273438 " fill-opacity="1" fill-rule="evenodd"/></g></g></g></g><g clip-path="url(#id37)"><g clip-path="url(#id38)"><g clip-path="url(#id39)"><g clip-path="url(#id40)"><path fill="#3b3b3c" d="M 278.441406 295.027344 C 265.390625 277.386719 281.050781 266.300781 288.921875 276.941406 C 292.074219 281.199219 291.179688 287.207031 286.917969 290.359375 C 282.660156 293.507812 281.59375 299.285156 278.441406 295.027344 " fill-opacity="1" fill-rule="evenodd"/></g></g></g></g><g clip-path="url(#id41)"><g clip-path="url(#id42)"><g clip-path="url(#id43)"><g clip-path="url(#id44)"><path fill="#3b3b3c" d="M 161.265625 229.613281 C 170.597656 225.003906 175.636719 222.222656 172.277344 215.429688 C 168.917969 208.632812 158.441406 200.398438 149.109375 205.007812 C 139.777344 209.621094 127.691406 222.445312 131.050781 229.238281 C 134.40625 236.03125 151.9375 234.226562 161.265625 229.613281 " fill-opacity="1" fill-rule="evenodd"/></g></g></g></g><g clip-path="url(#id45)"><g clip-path="url(#id46)"><g clip-path="url(#id47)"><g clip-path="url(#id48)"><path fill="#ffffff" d="M 147.460938 211.070312 C 154.917969 207.648438 162.683594 208.632812 164.808594 213.265625 C 166.9375 217.898438 162.617188 224.425781 155.164062 227.847656 C 147.710938 231.265625 139.941406 230.289062 137.8125 225.652344 C 135.6875 221.019531 140.007812 214.496094 147.460938 211.070312 " fill-opacity="1" fill-rule="evenodd"/></g></g></g></g><g clip-path="url(#id49)"><g clip-path="url(#id50)"><g clip-path="url(#id51)"><g clip-path="url(#id52)"><path fill="#3b3b3c" d="M 148.1875 214.824219 C 151.839844 212.742188 156.195312 213.125 157.917969 215.683594 C 159.644531 218.246094 158.082031 222.007812 154.433594 224.09375 C 150.785156 226.175781 146.433594 225.792969 144.707031 223.234375 C 142.984375 220.671875 144.542969 216.90625 148.1875 214.824219 " fill-opacity="1" fill-rule="evenodd"/></g></g></g></g><g clip-path="url(#id53)"><g clip-path="url(#id54)"><g clip-path="url(#id55)"><g clip-path="url(#id56)"><path fill="#ffffff" d="M 146.925781 220.101562 C 147.539062 219.648438 147.667969 218.777344 147.21875 218.167969 C 146.765625 217.558594 145.894531 217.425781 145.28125 217.878906 C 144.671875 218.328125 144.542969 219.203125 144.996094 219.8125 C 145.445312 220.421875 146.316406 220.554688 146.925781 220.101562 " fill-opacity="1" fill-rule="evenodd"/></g></g></g></g><g clip-path="url(#id57)"><g clip-path="url(#id58)"><g clip-path="url(#id59)"><g clip-path="url(#id60)"><path fill="#ffffff" d="M 157.433594 221.296875 C 157.777344 221.039062 157.851562 220.550781 157.597656 220.203125 C 157.34375 219.863281 156.851562 219.789062 156.507812 220.042969 C 156.160156 220.300781 156.085938 220.789062 156.339844 221.132812 C 156.597656 221.480469 157.085938 221.554688 157.433594 221.296875 " fill-opacity="1" fill-rule="evenodd"/></g></g></g></g><g clip-path="url(#id61)"><g clip-path="url(#id62)"><g clip-path="url(#id63)"><g clip-path="url(#id64)"><path fill="#3b3b3c" d="M 226.484375 181.359375 C 219.347656 188.929688 215.214844 192.9375 209.699219 187.738281 C 204.183594 182.542969 199.371094 170.113281 206.511719 162.535156 C 213.648438 154.960938 229.441406 147.15625 234.960938 152.351562 C 240.476562 157.546875 233.625 173.785156 226.484375 181.359375 " fill-opacity="1" fill-rule="evenodd"/></g></g></g></g><g clip-path="url(#id65)"><g clip-path="url(#id66)"><g clip-path="url(#id67)"><g clip-path="url(#id68)"><path fill="#ffffff" d="M 212.785156 162.734375 C 207.335938 168.863281 206.003906 176.574219 209.8125 179.964844 C 213.621094 183.351562 221.125 181.132812 226.578125 175.003906 C 232.03125 168.875 233.363281 161.160156 229.554688 157.769531 C 225.746094 154.382812 218.238281 156.605469 212.785156 162.734375 " fill-opacity="1" fill-rule="evenodd"/></g></g></g></g><g clip-path="url(#id69)"><g clip-path="url(#id70)"><g clip-path="url(#id71)"><g clip-path="url(#id72)"><path fill="#3b3b3c" d="M 216.164062 164.527344 C 213.105469 167.40625 212.199219 171.6875 214.144531 174.082031 C 216.085938 176.480469 220.140625 176.089844 223.203125 173.210938 C 226.261719 170.328125 227.167969 166.054688 225.226562 163.65625 C 223.277344 161.257812 219.222656 161.648438 216.164062 164.527344 " fill-opacity="1" fill-rule="evenodd"/></g></g></g></g><g clip-path="url(#id73)"><g clip-path="url(#id74)"><g clip-path="url(#id75)"><g clip-path="url(#id76)"><path fill="#ffffff" d="M 221.578125 164.863281 C 222.191406 164.410156 222.320312 163.539062 221.871094 162.929688 C 221.417969 162.320312 220.546875 162.1875 219.933594 162.640625 C 219.324219 163.09375 219.195312 163.964844 219.648438 164.578125 C 220.097656 165.183594 220.96875 165.316406 221.578125 164.863281 " fill-opacity="1" fill-rule="evenodd"/></g></g></g></g><g clip-path="url(#id77)"><g clip-path="url(#id78)"><g clip-path="url(#id79)"><g clip-path="url(#id80)"><path fill="#ffffff" d="M 219.652344 175.257812 C 219.996094 175.003906 220.070312 174.515625 219.8125 174.167969 C 219.558594 173.824219 219.070312 173.753906 218.726562 174.007812 C 218.378906 174.261719 218.304688 174.753906 218.558594 175.09375 C 218.816406 175.441406 219.304688 175.515625 219.652344 175.257812 " fill-opacity="1" fill-rule="evenodd"/></g></g></g></g></svg>