<svg xmlns="http://www.w3.org/2000/svg" xmlns:xlink="http://www.w3.org/1999/xlink" width="500" zoomAndPan="magnify" viewBox="0 0 375 374.999991" height="500" preserveAspectRatio="xMidYMid meet" version="1.0"><defs><clipPath id="id1"><path d="M 68.03125 68.03125 L 327.53125 68.03125 L 327.53125 327.53125 L 68.03125 327.53125 Z M 68.03125 68.03125 " clip-rule="nonzero"/></clipPath></defs><g clip-path="url(#id1)"><path fill="#d9d9d9" d="M 312.703125 68.03125 L 82.859375 68.03125 C 81.886719 68.03125 80.921875 68.125 79.964844 68.316406 C 79.011719 68.503906 78.085938 68.789062 77.183594 69.160156 C 76.285156 69.53125 75.429688 69.988281 74.621094 70.53125 C 73.8125 71.070312 73.0625 71.6875 72.375 72.375 C 71.6875 73.0625 71.070312 73.8125 70.53125 74.621094 C 69.988281 75.429688 69.53125 76.285156 69.160156 77.183594 C 68.789062 78.085938 68.503906 79.011719 68.316406 79.964844 C 68.125 80.921875 68.03125 81.886719 68.03125 82.859375 L 68.03125 312.703125 C 68.03125 313.675781 68.125 314.640625 68.316406 315.59375 C 68.503906 316.550781 68.789062 317.476562 69.160156 318.378906 C 69.53125 319.277344 69.988281 320.132812 70.53125 320.941406 C 71.070312 321.75 71.6875 322.5 72.375 323.1875 C 73.0625 323.875 73.8125 324.492188 74.621094 325.03125 C 75.429688 325.574219 76.285156 326.03125 77.183594 326.402344 C 78.085938 326.773438 79.011719 327.054688 79.964844 327.246094 C 80.921875 327.4375 81.886719 327.53125 82.859375 327.53125 L 312.703125 327.53125 C 313.675781 327.53125 314.640625 327.4375 315.59375 327.246094 C 316.550781 327.054688 317.476562 326.773438 318.378906 326.402344 C 319.277344 326.03125 320.132812 325.574219 320.941406 325.03125 C 321.75 324.492188 322.5 323.875 323.1875 323.1875 C 323.875 322.5 324.492188 321.75 325.03125 320.941406 C 325.574219 320.132812 326.03125 319.277344 326.402344 318.378906 C 326.773438 317.476562 327.054688 316.550781 327.246094 315.59375 C 327.4375 314.640625 327.53125 313.675781 327.53125 312.703125 L 327.53125 82.859375 C 327.53125 81.886719 327.4375 80.921875 327.246094 79.964844 C 327.054688 79.011719 326.773438 78.085938 326.402344 77.183594 C 326.03125 76.285156 325.574219 75.429688 325.03125 74.621094 C 324.492188 73.8125 323.875 73.0625 323.1875 72.375 C 322.5 71.6875 321.75 71.070312 320.941406 70.53125 C 320.132812 69.988281 319.277344 69.53125 318.378906 69.160156 C 317.476562 68.789062 316.550781 68.503906 315.59375 68.316406 C 314.640625 68.125 313.675781 68.03125 312.703125 68.03125 Z M 275.1875 269.441406 L 120.300781 268.996094 C 119.300781 268.996094 118.308594 268.898438 117.328125 268.703125 C 116.347656 268.507812 115.394531 268.21875 114.472656 267.835938 C 113.546875 267.453125 112.667969 266.984375 111.835938 266.425781 C 111.003906 265.871094 110.234375 265.238281 109.527344 264.53125 C 108.820312 263.824219 108.1875 263.054688 107.632812 262.222656 C 107.078125 261.390625 106.609375 260.515625 106.226562 259.589844 C 105.84375 258.664062 105.554688 257.710938 105.359375 256.730469 C 105.164062 255.75 105.066406 254.757812 105.066406 253.757812 C 105.066406 252.757812 105.164062 251.765625 105.359375 250.785156 C 105.554688 249.804688 105.84375 248.851562 106.226562 247.929688 C 106.609375 247.003906 107.078125 246.125 107.632812 245.292969 C 108.1875 244.460938 108.820312 243.691406 109.527344 242.984375 C 110.234375 242.277344 111.003906 241.644531 111.835938 241.089844 C 112.667969 240.535156 113.546875 240.066406 114.472656 239.683594 C 115.394531 239.300781 116.347656 239.011719 117.328125 238.816406 C 118.308594 238.621094 119.300781 238.523438 120.300781 238.523438 L 275.1875 238.96875 C 276.1875 238.96875 277.175781 239.066406 278.15625 239.261719 C 279.136719 239.457031 280.089844 239.75 281.011719 240.132812 C 281.9375 240.515625 282.8125 240.984375 283.644531 241.539062 C 284.476562 242.097656 285.242188 242.726562 285.949219 243.433594 C 286.65625 244.140625 287.289062 244.910156 287.84375 245.742188 C 288.398438 246.574219 288.867188 247.453125 289.25 248.375 C 289.632812 249.300781 289.921875 250.253906 290.113281 251.234375 C 290.308594 252.214844 290.40625 253.203125 290.40625 254.203125 C 290.40625 255.203125 290.308594 256.195312 290.113281 257.175781 C 289.921875 258.15625 289.632812 259.105469 289.25 260.03125 C 288.867188 260.953125 288.398438 261.832031 287.84375 262.664062 C 287.289062 263.496094 286.65625 264.265625 285.949219 264.972656 C 285.242188 265.679688 284.476562 266.3125 283.644531 266.867188 C 282.8125 267.421875 281.9375 267.894531 281.011719 268.277344 C 280.089844 268.660156 279.136719 268.949219 278.15625 269.144531 C 277.175781 269.339844 276.1875 269.4375 275.1875 269.441406 Z M 275.1875 213.238281 L 120.300781 212.792969 C 119.300781 212.792969 118.308594 212.699219 117.328125 212.503906 C 116.347656 212.308594 115.394531 212.019531 114.472656 211.636719 C 113.546875 211.253906 112.667969 210.78125 111.835938 210.226562 C 111.003906 209.671875 110.234375 209.039062 109.527344 208.332031 C 108.820312 207.625 108.1875 206.855469 107.632812 206.023438 C 107.078125 205.191406 106.609375 204.3125 106.226562 203.390625 C 105.84375 202.464844 105.554688 201.511719 105.359375 200.53125 C 105.164062 199.550781 105.066406 198.558594 105.066406 197.558594 C 105.066406 196.558594 105.164062 195.566406 105.359375 194.585938 C 105.554688 193.605469 105.84375 192.652344 106.226562 191.726562 C 106.609375 190.804688 107.078125 189.925781 107.632812 189.09375 C 108.1875 188.261719 108.820312 187.492188 109.527344 186.785156 C 110.234375 186.078125 111.003906 185.445312 111.835938 184.890625 C 112.667969 184.335938 113.546875 183.863281 114.472656 183.480469 C 115.394531 183.097656 116.347656 182.808594 117.328125 182.613281 C 118.308594 182.417969 119.300781 182.320312 120.300781 182.320312 L 275.261719 182.953125 C 276.261719 182.953125 277.25 183.050781 278.234375 183.246094 C 279.214844 183.441406 280.167969 183.730469 281.089844 184.113281 C 282.015625 184.496094 282.894531 184.964844 283.726562 185.519531 C 284.558594 186.074219 285.328125 186.707031 286.035156 187.414062 C 286.742188 188.121094 287.371094 188.890625 287.929688 189.722656 C 288.484375 190.554688 288.953125 191.433594 289.335938 192.359375 C 289.71875 193.28125 290.007812 194.234375 290.203125 195.214844 C 290.398438 196.199219 290.496094 197.1875 290.496094 198.1875 C 290.496094 199.1875 290.398438 200.179688 290.203125 201.160156 C 290.007812 202.140625 289.71875 203.09375 289.335938 204.019531 C 288.953125 204.945312 288.484375 205.820312 287.929688 206.652344 C 287.371094 207.484375 286.742188 208.253906 286.035156 208.960938 C 285.328125 209.667969 284.558594 210.300781 283.726562 210.855469 C 282.894531 211.414062 282.015625 211.882812 281.089844 212.265625 C 280.167969 212.648438 279.214844 212.9375 278.234375 213.132812 C 277.25 213.328125 276.261719 213.425781 275.261719 213.425781 Z M 290.460938 141.839844 C 290.453125 142.839844 290.351562 143.828125 290.152344 144.808594 C 289.953125 145.785156 289.660156 146.734375 289.273438 147.65625 C 288.890625 148.578125 288.417969 149.453125 287.859375 150.28125 C 287.300781 151.109375 286.667969 151.875 285.957031 152.578125 C 285.25 153.28125 284.476562 153.910156 283.644531 154.464844 C 282.8125 155.015625 281.933594 155.480469 281.011719 155.859375 C 280.085938 156.238281 279.136719 156.527344 278.15625 156.71875 C 277.175781 156.910156 276.183594 157.003906 275.1875 157.003906 L 120.300781 156.59375 C 119.300781 156.59375 118.308594 156.5 117.328125 156.304688 C 116.347656 156.109375 115.394531 155.820312 114.46875 155.4375 C 113.542969 155.054688 112.664062 154.585938 111.832031 154.03125 C 111 153.476562 110.230469 152.84375 109.519531 152.136719 C 108.8125 151.429688 108.179688 150.660156 107.625 149.828125 C 107.070312 148.996094 106.597656 148.117188 106.214844 147.191406 C 105.832031 146.265625 105.542969 145.3125 105.347656 144.332031 C 105.152344 143.351562 105.054688 142.359375 105.054688 141.359375 C 105.054688 140.355469 105.152344 139.367188 105.347656 138.382812 C 105.542969 137.402344 105.832031 136.449219 106.214844 135.523438 C 106.597656 134.601562 107.070312 133.722656 107.625 132.890625 C 108.179688 132.058594 108.8125 131.289062 109.519531 130.582031 C 110.230469 129.875 111 129.242188 111.832031 128.6875 C 112.664062 128.128906 113.542969 127.660156 114.46875 127.277344 C 115.394531 126.894531 116.347656 126.609375 117.328125 126.414062 C 118.308594 126.21875 119.300781 126.121094 120.300781 126.121094 L 275.1875 126.566406 C 276.191406 126.5625 277.183594 126.660156 278.167969 126.855469 C 279.152344 127.046875 280.109375 127.335938 281.035156 127.71875 C 281.964844 128.101562 282.84375 128.574219 283.679688 129.128906 C 284.515625 129.6875 285.289062 130.320312 285.996094 131.03125 C 286.707031 131.738281 287.339844 132.511719 287.898438 133.347656 C 288.453125 134.179688 288.925781 135.0625 289.308594 135.988281 C 289.691406 136.917969 289.976562 137.875 290.171875 138.859375 C 290.367188 139.84375 290.460938 140.835938 290.460938 141.839844 Z M 290.460938 141.839844 " fill-opacity="1" fill-rule="nonzero"/></g></svg>